<svg data-v-423bf9ae="" xmlns="http://www.w3.org/2000/svg" viewBox="0 0 351.16152728459093 383" class="iconAbove"><!----><!----><!----><g data-v-423bf9ae="" id="a24d719a-b8b4-458f-8d80-14d131ba1e25" fill="black" transform="matrix(5.284718233467994,0,0,5.284718233467994,2.84226105275431,320.39234062721346)"><path d="M4.82 5.50Q5.27 4.74 5.48 3.53L5.48 3.53Q5.71 2.15 5.22 1.57L5.22 1.57Q4.93 1.22 4.18 1.27L4.18 1.27Q3.24 1.33 2.34 1.85L2.34 1.85Q1.09 2.59 0.49 4.34L0.49 4.34Q-0.13 6.10 0.49 7.18L0.49 7.18Q0.78 7.68 2.15 8.17L2.15 8.17Q2.72 8.37 2.93 8.48L2.93 8.48Q3.36 8.74 3.45 9.11L3.45 9.11Q3.55 9.50 3.21 10.17L3.21 10.17Q3.03 10.51 2.75 10.76L2.75 10.76Q2.63 10.87 2.47 10.97L2.47 10.97Q2.40 11.02 2.38 11.03L2.38 11.03Q2.32 11.07 2.26 11.09L2.26 11.09Q2.35 11.05 2.23 11.10L2.23 11.10Q2.24 11.10 2.30 11.09L2.30 11.09Q2.26 11.09 2.21 11.09L2.21 11.09Q2.20 11.10 2.11 11.09L2.11 11.09Q2.06 11.09 1.91 11.05L1.91 11.05Q1.55 10.97 1.25 10.64L1.25 10.64Q1.03 10.39 0.94 9.93L0.94 9.93Q0.84 9.44 1.07 9.28L1.07 9.28Q1.26 9.13 1.24 9.06L1.24 9.06Q1.22 8.97 0.98 8.96L0.98 8.96Q0.36 8.95-0.05 9.24L-0.05 9.24Q-0.44 9.53-0.51 9.86L-0.51 9.86Q-0.59 10.20-0.44 10.62L-0.44 10.62Q-0.16 11.36 0.70 11.61L0.70 11.61Q1.59 11.87 2.86 11.37L2.86 11.37Q3.88 10.96 4.44 10.24L4.44 10.24Q4.82 9.76 4.91 9.24L4.91 9.24Q5.01 8.62 4.63 8.23L4.63 8.23Q4.36 7.96 3.80 7.75L3.80 7.75Q3.65 7.70 3.34 7.59L3.34 7.59Q3.04 7.50 2.91 7.44L2.91 7.44Q2.38 7.23 2.10 6.97L2.10 6.97Q1.80 6.69 1.70 5.96L1.70 5.96Q1.50 4.53 2.45 2.97L2.45 2.97Q2.86 2.29 3.37 1.95L3.37 1.95Q3.42 1.91 3.51 1.86L3.51 1.86Q3.51 1.86 3.56 1.84L3.56 1.84Q3.55 1.84 3.59 1.83L3.59 1.83Q3.56 1.84 3.60 1.83L3.60 1.83Q3.53 1.85 3.45 1.85L3.45 1.85Q3.47 1.85 3.46 1.85L3.46 1.85L3.48 1.85Q3.53 1.86 3.62 1.89L3.62 1.89Q3.63 1.89 3.73 1.96L3.73 1.96Q3.79 2.01 3.83 2.06L3.83 2.06Q3.95 2.20 4.02 2.45L4.02 2.45Q4.14 2.84 4.07 3.49L4.07 3.49Q3.95 4.81 3.38 5.76L3.38 5.76Q3.29 5.90 3.60 5.91L3.60 5.91Q3.79 5.92 3.96 5.89L3.96 5.89Q4.66 5.76 4.82 5.50L4.82 5.50ZM12.23 4.11Q12.04 3.91 11.53 3.96L11.53 3.96Q10.44 4.06 9.69 4.80L9.69 4.80Q9.71 4.50 9.67 4.26L9.67 4.26Q9.58 3.66 8.74 3.77L8.74 3.77Q8.10 3.85 7.56 4.16L7.56 4.16Q7.41 4.25 7.27 4.37L7.27 4.37Q7.28 4.16 7.28 3.94L7.28 3.94Q7.28 3.86 7.05 3.86L7.05 3.86Q6.84 3.84 6.55 3.90L6.55 3.90Q5.82 4.05 5.82 4.34L5.82 4.34Q5.81 5.59 5.26 7.64L5.26 7.64Q4.61 10.01 4.50 10.90L4.50 10.90Q4.48 11.08 5.10 10.97L5.10 10.97Q5.41 10.92 5.66 10.79L5.66 10.79Q5.95 10.66 5.96 10.58L5.96 10.58Q6.04 10.11 6.36 9.02L6.36 9.02Q6.75 7.73 7.21 6.61L7.21 6.61Q7.74 5.35 8.22 4.68L8.22 4.68Q8.28 4.99 8.16 5.71L8.16 5.71Q8.08 6.14 7.86 6.99L7.86 6.99Q7.81 7.21 7.44 9.63L7.44 9.63Q7.37 9.84 7.33 10.04L7.33 10.04Q7.25 10.34 7.23 10.70L7.23 10.70Q7.22 10.88 7.92 10.74L7.92 10.74Q8.63 10.60 8.68 10.37L8.68 10.37Q8.79 9.93 8.88 9.35L8.88 9.35Q9.00 8.96 9.24 8.42L9.24 8.42Q9.75 7.25 9.89 6.86L9.89 6.86Q10.21 5.94 10.51 5.39L10.51 5.39Q10.71 5.02 10.90 4.80L10.90 4.80Q10.88 4.82 10.91 4.78L10.91 4.78Q10.95 4.94 10.93 5.26L10.93 5.26Q10.88 5.97 10.52 7.39L10.52 7.39Q10.09 9.08 10.00 9.54L10.00 9.54Q9.95 9.81 9.88 10.54L9.88 10.54Q9.81 11.18 9.71 11.55L9.71 11.55Q9.65 11.79 10.30 11.68L10.30 11.68Q10.60 11.62 10.86 11.50L10.86 11.50Q11.14 11.38 11.16 11.28L11.16 11.28Q11.26 10.89 11.33 10.19L11.33 10.19Q11.42 9.40 11.48 9.09L11.48 9.09Q11.47 9.14 12.06 6.75L12.06 6.75Q12.41 5.32 12.40 4.63L12.40 4.63Q12.39 4.29 12.23 4.11L12.23 4.11ZM14.40 8.98Q14.13 9.59 13.77 10.07L13.77 10.07Q13.67 10.19 13.54 10.32L13.54 10.32Q13.41 10.16 13.34 9.83L13.34 9.83Q13.13 8.78 13.69 6.77L13.69 6.77Q13.92 5.93 14.23 5.26L14.23 5.26Q14.34 5.01 14.46 4.80L14.46 4.80Q14.90 5.34 14.94 6.34L14.94 6.34Q15.00 7.59 14.40 8.98L14.40 8.98ZM15.40 3.95Q15.13 3.80 14.46 4.03L14.46 4.03Q14.20 4.12 14.04 4.26L14.04 4.26Q13.74 4.33 13.55 4.46L13.55 4.46Q13.07 4.80 12.66 5.80L12.66 5.80Q12.26 6.75 12.02 7.93L12.02 7.93Q11.76 9.18 11.85 9.99L11.85 9.99Q11.94 10.92 12.57 11.01L12.57 11.01Q13.17 11.08 13.84 10.83L13.84 10.83Q14.47 10.60 14.92 10.15L14.92 10.15Q15.64 9.43 16.07 8.11L16.07 8.11Q16.48 6.90 16.43 5.87L16.43 5.87Q16.35 4.47 15.40 3.95L15.40 3.95ZM18.84 8.98Q18.57 9.59 18.21 10.07L18.21 10.07Q18.11 10.19 17.98 10.32L17.98 10.32Q17.85 10.16 17.78 9.83L17.78 9.83Q17.57 8.78 18.13 6.77L18.13 6.77Q18.36 5.93 18.67 5.26L18.67 5.26Q18.79 5.01 18.91 4.80L18.91 4.80Q19.35 5.34 19.39 6.34L19.39 6.34Q19.44 7.59 18.84 8.98L18.84 8.98ZM19.84 3.95Q19.58 3.80 18.91 4.03L18.91 4.03Q18.64 4.12 18.48 4.26L18.48 4.26Q18.18 4.33 17.99 4.46L17.99 4.46Q17.51 4.80 17.10 5.80L17.10 5.80Q16.71 6.75 16.47 7.93L16.47 7.93Q16.21 9.18 16.29 9.99L16.29 9.99Q16.38 10.92 17.01 11.01L17.01 11.01Q17.62 11.08 18.28 10.83L18.28 10.83Q18.92 10.60 19.36 10.15L19.36 10.15Q20.08 9.43 20.51 8.11L20.51 8.11Q20.92 6.90 20.87 5.87L20.87 5.87Q20.79 4.47 19.84 3.95L19.84 3.95ZM25.06 4.08Q24.51 4.06 23.75 4.06L23.75 4.06Q24.01 3.21 24.40 2.17L24.40 2.17Q24.49 1.92 23.82 2.04L23.82 2.04Q23.05 2.18 22.96 2.44L22.96 2.44Q22.63 3.32 22.39 4.08L22.39 4.08Q22.18 4.08 22.03 4.08L22.03 4.08Q21.44 4.08 21 4.36L21 4.36Q20.82 4.47 20.84 4.57L20.84 4.57Q20.87 4.67 21.08 4.67L21.08 4.67Q21.39 4.67 22.21 4.66L22.21 4.66Q21.89 5.76 21.70 6.75L21.70 6.75Q21.64 7.12 21.55 7.70L21.55 7.70Q21.44 8.47 21.42 8.65L21.42 8.65Q21.24 9.73 21.53 10.40L21.53 10.40Q21.80 11.02 22.37 11.02L22.37 11.02Q23.41 11.01 24.06 10.36L24.06 10.36Q24.92 9.47 25.07 8.22L25.07 8.22Q25.07 8.16 24.85 8.15L24.85 8.15Q24.64 8.13 24.36 8.19L24.36 8.19Q23.64 8.32 23.60 8.61L23.60 8.61Q23.52 9.32 23.02 10.09L23.02 10.09Q22.86 9.79 22.81 9.34L22.81 9.34Q22.76 8.91 22.96 7.82L22.96 7.82Q22.98 7.63 23.10 6.88L23.10 6.88Q23.18 6.30 23.26 5.93L23.26 5.93Q23.39 5.32 23.58 4.66L23.58 4.66Q23.88 4.66 24.11 4.67L24.11 4.67Q24.65 4.70 25.14 4.40L25.14 4.40Q25.32 4.29 25.29 4.19L25.29 4.19Q25.27 4.09 25.06 4.08L25.06 4.08ZM30.24 4.41Q30.07 3.82 29.22 3.94L29.22 3.94Q28.53 4.04 28.01 4.40L28.01 4.40Q27.62 4.66 27.28 5.13L27.28 5.13Q27.69 3.24 28.38 0.53L28.38 0.53Q28.44 0.28 27.79 0.40L27.79 0.40Q27.49 0.45 27.23 0.57L27.23 0.57Q26.96 0.70 26.94 0.79L26.94 0.79Q25.38 6.96 24.92 10.85L24.92 10.85Q24.90 11.03 25.59 10.88L25.59 10.88Q26.27 10.73 26.37 10.53L26.37 10.53Q26.43 10.37 26.95 8.85L26.95 8.85Q27.47 7.33 27.91 6.36L27.91 6.36Q28.40 5.26 28.79 4.78L28.79 4.78Q28.85 4.95 28.87 5.37L28.87 5.37Q28.89 5.97 28.66 7.46L28.66 7.46Q28.59 7.90 28.21 9.10L28.21 9.10Q27.89 10.12 27.88 10.75L27.88 10.75Q27.88 10.83 28.11 10.84L28.11 10.84Q28.32 10.85 28.61 10.79L28.61 10.79Q29.33 10.64 29.34 10.36L29.34 10.36Q29.35 9.87 29.85 8.25L29.85 8.25Q30.01 7.76 30.15 6.86L30.15 6.86Q30.26 6.12 30.30 5.61L30.30 5.61Q30.37 4.83 30.24 4.41L30.24 4.41ZM31.45 4.42Q31.17 5.93 30.72 7.64L30.72 7.64Q30.53 8.35 30.27 9.22L30.27 9.22Q29.91 10.42 29.98 10.72L29.98 10.72Q30.02 10.95 30.75 10.77L30.75 10.77Q31.48 10.58 31.43 10.33L31.43 10.33Q31.38 10.06 31.71 8.96L31.71 8.96Q31.94 8.18 32.16 7.38L32.16 7.38Q32.60 5.70 32.88 4.16L32.88 4.16Q32.92 3.92 32.30 4.03L32.30 4.03Q31.99 4.09 31.74 4.20L31.74 4.20Q31.46 4.33 31.45 4.42L31.45 4.42ZM31.27 2.43Q31.57 2.63 31.77 2.83L31.77 2.83Q31.84 2.90 32.14 2.87L32.14 2.87Q32.42 2.84 32.71 2.74L32.71 2.74Q33.33 2.52 33.15 2.34L33.15 2.34Q32.94 2.13 32.65 1.93L32.65 1.93Q32.55 1.87 32.28 1.89L32.28 1.89Q32.00 1.92 31.71 2.02L31.71 2.02Q31.53 2.08 31.38 2.18L31.38 2.18Q31.14 2.34 31.27 2.43L31.27 2.43ZM34.32 7.05Q34.41 6.66 34.49 6.31L34.49 6.31Q34.69 5.80 34.96 5.24L34.96 5.24Q35.09 4.99 35.25 4.76L35.25 4.76Q35.31 4.68 35.39 4.59L35.39 4.59Q35.37 4.61 35.41 4.57L35.41 4.57Q35.44 4.59 35.48 4.61L35.48 4.61Q35.75 4.82 35.81 5.46L35.81 5.46Q35.89 6.01 35.64 6.95L35.64 6.95Q34.84 6.97 34.32 7.05L34.32 7.05ZM34.09 10.48Q34.09 10.48 34.09 10.48L34.09 10.48Q34.09 10.48 34.07 10.49L34.07 10.49Q34.08 10.49 34.09 10.48L34.09 10.48ZM35.59 4.42L35.59 4.42Q35.59 4.42 35.59 4.41L35.59 4.41Q35.59 4.42 35.59 4.42L35.59 4.42ZM37.28 5.11Q37.24 4.50 36.90 4.17L36.90 4.17Q36.53 3.80 35.55 3.98L35.55 3.98Q34.64 4.14 34.10 4.68L34.10 4.68Q33.74 5.04 33.44 5.69L33.44 5.69Q32.98 6.49 32.74 8.04L32.74 8.04Q32.61 8.93 32.62 9.63L32.62 9.63Q32.62 10.77 33.33 10.94L33.33 10.94Q33.80 11.06 34.63 10.78L34.63 10.78Q35.13 10.62 35.59 10.23L35.59 10.23Q36.40 9.57 36.55 8.68L36.55 8.68Q36.59 8.44 35.97 8.54L35.97 8.54Q35.66 8.60 35.42 8.72L35.42 8.72Q35.13 8.85 35.12 8.94L35.12 8.94Q35.02 9.50 34.60 10.04L34.60 10.04Q34.50 10.15 34.35 10.28L34.35 10.28Q34.22 10.17 34.14 9.85L34.14 9.85Q34.05 9.51 34.08 8.76L34.08 8.76Q34.13 8.08 34.23 7.53L34.23 7.53Q34.54 7.50 35.08 7.50L35.08 7.50Q35.77 7.51 35.92 7.50L35.92 7.50Q36.15 7.49 36.48 7.38L36.48 7.38Q36.90 7.22 36.95 7.08L36.95 7.08Q37.34 5.92 37.28 5.11L37.28 5.11ZM46.09 2.63Q45.79 1.84 45.08 1.42L45.08 1.42Q44.43 1.03 43.54 1.02L43.54 1.02Q42.53 1.00 41.27 1.39L41.27 1.39Q40.54 1.61 40.59 1.80L40.59 1.80Q40.66 2.04 41.38 1.83L41.38 1.83Q41.58 1.76 41.77 1.72L41.77 1.72Q41.77 1.72 41.82 1.70L41.82 1.70Q41.88 1.69 41.89 1.69L41.89 1.69Q41.95 1.67 42.02 1.66L42.02 1.66Q42.08 1.65 42.19 1.63L42.19 1.63Q42.20 1.63 42.29 1.62L42.29 1.62Q42.36 1.61 42.49 1.61L42.49 1.61Q42.50 1.61 42.59 1.61L42.59 1.61Q43.31 1.61 43.87 2.00L43.87 2.00Q44.48 2.43 44.71 3.27L44.71 3.27Q44.90 3.98 44.78 4.81L44.78 4.81Q44.54 6.56 43.35 7.40L43.35 7.40Q43.31 7.42 43.24 7.46L43.24 7.46Q43.26 7.46 43.24 7.46L43.24 7.46Q43.22 7.47 43.20 7.48L43.20 7.48Q43.15 7.48 43.15 7.49L43.15 7.49Q43.05 7.49 42.96 7.47L42.96 7.47Q42.29 7.36 42.21 6.66L42.21 6.66Q42.21 6.60 42.11 6.58L42.11 6.58Q42.12 6.55 42.13 6.49L42.13 6.49Q42.14 6.44 42.14 6.42L42.14 6.42Q42.68 3.25 43.00 2.24L43.00 2.24Q43.09 1.98 42.42 2.10L42.42 2.10Q42.12 2.15 41.86 2.27L41.86 2.27Q41.60 2.40 41.56 2.50L41.56 2.50Q41.24 3.51 40.68 6.77L40.68 6.77Q40.45 8.13 40.22 8.89L40.22 8.89Q39.78 10.44 39.74 10.94L39.74 10.94Q39.73 11.01 39.96 11.02L39.96 11.02Q40.17 11.03 40.45 10.98L40.45 10.98Q41.17 10.84 41.20 10.55L41.20 10.55Q41.23 10.13 41.69 8.54L41.69 8.54Q41.76 8.31 41.83 8.03L41.83 8.03Q42.46 8.13 43.31 7.92L43.31 7.92Q45.02 7.52 45.86 5.75L45.86 5.75Q46.63 4.09 46.09 2.63L46.09 2.63ZM47.77 8.98Q47.50 9.59 47.14 10.07L47.14 10.07Q47.04 10.19 46.91 10.32L46.91 10.32Q46.78 10.16 46.71 9.83L46.71 9.83Q46.50 8.78 47.06 6.77L47.06 6.77Q47.29 5.93 47.60 5.26L47.60 5.26Q47.71 5.01 47.84 4.80L47.84 4.80Q48.28 5.34 48.32 6.34L48.32 6.34Q48.37 7.59 47.77 8.98L47.77 8.98ZM48.77 3.95Q48.51 3.80 47.84 4.03L47.84 4.03Q47.57 4.12 47.41 4.26L47.41 4.26Q47.11 4.33 46.92 4.46L46.92 4.46Q46.44 4.80 46.03 5.80L46.03 5.80Q45.64 6.75 45.40 7.93L45.40 7.93Q45.14 9.18 45.22 9.99L45.22 9.99Q45.31 10.92 45.94 11.01L45.94 11.01Q46.55 11.08 47.21 10.83L47.21 10.83Q47.84 10.60 48.29 10.15L48.29 10.15Q49.01 9.43 49.44 8.11L49.44 8.11Q49.85 6.90 49.80 5.87L49.80 5.87Q49.72 4.47 48.77 3.95L48.77 3.95ZM54.04 4.53Q53.73 4.35 53.06 4.50L53.06 4.50Q52.57 4.62 52.16 4.94L52.16 4.94Q52.16 4.94 52.15 4.94L52.15 4.94Q52.15 4.94 52.14 4.95L52.14 4.95Q52.20 4.53 52.16 4.16L52.16 4.16Q52.14 4.07 51.91 4.05L51.91 4.05Q51.69 4.05 51.40 4.12L51.40 4.12Q50.67 4.29 50.70 4.55L50.70 4.55Q50.75 5.05 50.19 7.33L50.19 7.33Q50.09 7.73 50.00 8.28L50.00 8.28Q49.64 9.37 49.53 10.66L49.53 10.66Q49.52 10.73 49.52 10.73L49.52 10.73Q49.51 10.90 50.20 10.77L50.20 10.77Q50.91 10.63 50.98 10.40L50.98 10.40Q51.12 9.87 51.43 8.07L51.43 8.07Q51.95 6.54 52.92 5.39L52.92 5.39Q52.96 5.61 52.90 5.93L52.90 5.93Q52.81 6.43 52.47 7.06L52.47 7.06Q52.20 7.59 51.96 7.79L51.96 7.79Q51.80 7.94 51.99 8.00L51.99 8.00Q52.13 8.04 52.30 8.03L52.30 8.03Q52.95 7.96 53.29 7.68L53.29 7.68Q53.60 7.40 53.94 6.75L53.94 6.75Q54.28 6.10 54.38 5.46L54.38 5.46Q54.48 4.79 54.04 4.53L54.04 4.53ZM57.90 4.08Q57.35 4.06 56.59 4.06L56.59 4.06Q56.85 3.21 57.24 2.17L57.24 2.17Q57.33 1.92 56.66 2.04L56.66 2.04Q55.89 2.18 55.79 2.44L55.79 2.44Q55.47 3.32 55.23 4.08L55.23 4.08Q55.02 4.08 54.87 4.08L54.87 4.08Q54.28 4.08 53.84 4.36L53.84 4.36Q53.66 4.47 53.68 4.57L53.68 4.57Q53.71 4.67 53.92 4.67L53.92 4.67Q54.23 4.67 55.05 4.66L55.05 4.66Q54.73 5.76 54.54 6.75L54.54 6.75Q54.48 7.12 54.39 7.70L54.39 7.70Q54.28 8.47 54.26 8.65L54.26 8.65Q54.08 9.73 54.37 10.40L54.37 10.40Q54.64 11.02 55.21 11.02L55.21 11.02Q56.25 11.01 56.90 10.36L56.90 10.36Q57.76 9.47 57.91 8.22L57.91 8.22Q57.91 8.16 57.69 8.15L57.69 8.15Q57.48 8.13 57.20 8.19L57.20 8.19Q56.48 8.32 56.44 8.61L56.44 8.61Q56.36 9.32 55.86 10.09L55.86 10.09Q55.70 9.79 55.65 9.34L55.65 9.34Q55.60 8.91 55.79 7.82L55.79 7.82Q55.82 7.63 55.94 6.88L55.94 6.88Q56.02 6.30 56.10 5.93L56.10 5.93Q56.23 5.32 56.42 4.66L56.42 4.66Q56.72 4.66 56.95 4.67L56.95 4.67Q57.49 4.70 57.98 4.40L57.98 4.40Q58.16 4.29 58.13 4.19L58.13 4.19Q58.11 4.09 57.90 4.08L57.90 4.08ZM59.75 9.01Q59.29 9.63 59.17 9.78L59.17 9.78Q59.12 9.69 59.09 9.60L59.09 9.60Q58.87 8.99 59.02 7.95L59.02 7.95Q59.14 7.14 59.54 6.16L59.54 6.16Q59.69 5.80 59.89 5.44L59.89 5.44Q60.02 5.22 60.19 5.04L60.19 5.04Q60.35 4.88 60.59 4.70L60.59 4.70Q60.60 4.69 60.61 4.68L60.61 4.68Q60.62 4.68 60.65 4.66L60.65 4.66Q60.69 4.63 60.76 4.58L60.76 4.58Q60.76 4.58 60.77 4.57L60.77 4.57Q60.98 4.74 60.94 5.37L60.94 5.37Q60.94 5.48 61.36 5.44L61.36 5.44Q61.25 5.98 61.03 6.88L61.03 6.88Q60.66 7.77 59.75 9.01L59.75 9.01ZM62.86 4.85Q62.86 4.72 62.41 4.77L62.41 4.77Q62.38 4.17 62.02 4.01L62.02 4.01Q61.43 3.75 60.40 4.17L60.40 4.17Q58.98 4.74 58.39 5.81L58.39 5.81Q57.45 7.56 57.51 9.26L57.51 9.26Q57.54 10.25 58.02 10.56L58.02 10.56Q58.25 10.71 58.85 10.63L58.85 10.63Q59.41 10.55 59.88 10.22L59.88 10.22Q60.15 10.04 60.42 9.75L60.42 9.75Q60.34 10.31 60.31 10.81L60.31 10.81Q60.30 10.88 60.53 10.90L60.53 10.90Q60.74 10.90 61.02 10.85L61.02 10.85Q61.74 10.71 61.76 10.42L61.76 10.42Q61.84 9.17 62.46 6.64L62.46 6.64Q62.83 5.73 62.86 4.85L62.86 4.85ZM64.46 0.91Q63.75 2.82 63.18 5.84L63.18 5.84Q62.27 10.69 62.23 10.86L62.23 10.86Q62.18 11.10 62.82 10.99L62.82 10.99Q63.12 10.93 63.38 10.81L63.38 10.81Q63.66 10.68 63.68 10.60L63.68 10.60Q65.96 0.48 65.90 0.65L65.90 0.65Q65.99 0.39 65.32 0.51L65.32 0.51Q64.55 0.65 64.46 0.91L64.46 0.91Z"></path></g><!----><g data-v-423bf9ae="" id="31a9202d-a0bf-49c3-82aa-0df8e711c46e" transform="matrix(1.8538265652126735,0,0,1.8538265652126735,-8.851114134553853,-30.95026798988951)" stroke="none" fill="black"><path d="M104.9 146.6c-.9 0-1.7.3-2.4.7-.6.4-1.1.9-1.2 1.4-.4 1.1-1 2.1-2 2.8-1 .7-2.2 1.2-3.6 1.3-2.7.3-5.5-.8-6.7-2.7-.5-.8-.9-1.7-1-2.7-.1-1.1-.1-2.2.2-3.1.5-1.9 2.1-3.5 4.3-4.3 2.2-.8 4.9-.9 7.1.1 2.3.9 4 3.1 4.5 6 .1.7 1.6.8 1.7-.1.1-1.6-.1-3.4-.8-5-.7-1.6-1.9-3.1-3.4-4.2-3-2.2-6.9-2.8-10.5-2-1.8.4-3.6 1.2-5.2 2.5s-2.8 3-3.5 4.9c-.7 1.9-.9 3.9-.8 5.9.2 2 .8 4 2 5.8 1.4 2.1 3.6 3.7 5.8 4.6 2.3.9 4.7 1.2 7 .9 2.3-.2 4.7-1 6.7-2.5 2-1.4 3.7-3.7 4.4-6.1.4-1.2.1-2.3-.4-3-.5-.9-1.3-1.2-2.2-1.2z"></path><path d="M147.7 55.8c-.3-2-.8-4-1.4-6-.7-2-1.5-4-2.7-5.9-1.2-1.9-2.7-3.7-4.6-5.1-1.9-1.5-4.1-2.4-6.3-3h-.1c0-.2.1-.4.1-.5h-1.6c0-.7-.1-1.4-.4-2.2-1.2-2.9-3.1-5.4-5.3-7.3-2.2-2-4.7-3.3-7.2-4.5-5-2.3-10.3-3.5-15.5-4.1-8.6-1-17.4-.4-25.7 2.4-4.1 1.4-8.2 3.3-11.5 6.3-.8.8-1.6 1.5-2.3 2.5-.3.5-.7.9-1 1.4l-.8 1.5c-.6 1.3-1 2.6-1.2 3.9-1 .1-2 .3-3.1.6-.2.1-.4.1-.7.2-.4.1-.7.2-1 .3-.7.2-1.3.5-1.9.9-.6.4-1 .8-1.4 1.3-.3.5-.6 1.2-.6 1.8-.1 1.3.3 2.6 1 3.8l.6.9.4.6c.3.4.5.7.8 1 1.1 1.3 2.2 2.5 3.4 3.6l3.3 3.3c.5.5 1 1.1 1.4 1.6.2.3.4.5.5.7.1.1.1.1.2.3l.2.5c1 2.5 1.4 5.6 1.9 8.7.2 1.6.4 3.2.8 4.8l1 4.6c2.6 12.3 5.3 24.6 7.9 36.9.4 1.6.9 2.4 1.3 2.3 0 .1 0 .2.1.3-.2.2-.5.4-.7.8-2.8 3.9-5.3 8-7.6 12.3-2.2 4.3-4.3 8.6-6 13.2-1.7 4.6-3.1 9.3-3.9 14.2-.8 4.9-1.1 10 .2 15.2l.6 1.9.3 1c.1.3.3.6.5 1 .3.6.6 1.3 1 1.9l1.3 1.8c2 2.2 4.7 3.7 7.3 4.5 2.6.9 5.3 1.2 7.8 1.3 2.6.2 5 .1 7.5 0l7.1-.4c2.3-.1 4.5-.1 6.8.1 4.7.3 9.5.8 14.7.5 3.1-.2 6.4-.7 9.7-2.1 1.6-.7 3.2-1.7 4.5-3 1.3-1.3 2.4-2.8 3.2-4.4 1.6-3.2 2.2-6.4 2.5-9.6.2-3.2 0-6.3-.4-9.4-.9-6.1-2.6-11.9-4.6-17.6-2.1-5.6-4.6-11.1-7.5-16.3-2-3.7-4.7-6.3-6.5-7 .3-.3.5-.6.8-.9 1-1.3 1.5-2.7 1.8-3.8.3-1.2.5-2.2.7-3.2.3-2 .7-3.7 1.1-5.7l2.6-11.5 10.4-46.5c2.9.7 5.1 2.5 6.8 5.1.8 1.4 1.5 2.9 2 4.5s.9 3.3 1.2 5.1c1 5.8 1.2 11.8 1.3 18 .2 6.1.1 12.4.8 18.7.1.8 1.6.8 1.7 0 1.8-12.5 4.5-24.9 2.4-38.1zM63.9 32.6l.9-1.1c.3-.4.7-.6 1-1 .6-.7 1.5-1.2 2.2-1.7 3.2-2.1 6.9-3.3 10.7-4.2 7.6-1.7 15.6-1.9 23.4-1 4.7.6 9.4 1.7 13.6 3.6 4 1.8 7.4 4.5 8.9 7.9h-.5l-4.7-.2-9.5-.4c-6.3-.2-12.6-.4-19-.5-6.3-.1-12.7-.1-19.1.1-3 .1-6 .3-9.1.6l1.2-2.1zm50.9 91.3c2.7 5 5.1 10.2 7.1 15.5 2 5.3 3.5 10.7 4.3 16.2.4 2.7.5 5.4.3 8-.2 2.6-.7 5.2-1.8 7.2-1 2-2.5 3.5-4.6 4.4-2.1 1-4.6 1.4-7.3 1.5-4.4.2-9.1-.2-14-.4-2.4-.1-5.1-.1-7.5 0l-7.2.5c-2.3.2-4.6.3-6.9.2-2.2-.1-4.4-.3-6.3-.8-1.9-.6-3.6-1.4-4.9-2.7-1.3-1.3-2-3.1-2.7-5.1-1.2-4.1-1.3-8.7-.8-13.2s1.5-9.1 2.9-13.6c1.3-4.5 3-8.9 4.9-13.2 1.9-4.3 4-8.5 6.5-12.6.2-.3.3-.5.4-.7.7.4 1.6.8 2.7 1.2 2.3.8 5.7 1.5 9.4 1.8 4 .3 8 .6 12.3.3 2.1-.1 4.3-.5 6.7-1.3.6-.2 1.1-.4 1.6-.7.5-.2 1-.5 1.6-.8.1-.1.2-.1.3-.2 0 1.9 1.2 5.1 3 8.5zm9.8-82.2l-10.2 45.6-2.6 11.5c-.4 1.9-.8 4-1.2 5.9-.3 2-.7 3.6-1.2 4.2-.2.3-.6.7-1.3 1-.3.2-.7.4-1.1.5-.4.2-.8.4-1.1.5-1.4.5-3.1.8-4.9.9-3.6.3-7.4 0-11.3-.3-3.7-.3-7.1-.3-9.7.1-1.8.3-3.1.8-3.7 1.4.1-.4.1-1.1-.1-1.9-1.2-7.7-2.4-15.3-3.6-23 .7.4 1.3.5 1.7.2l.6-.4.6-.3 1.3-.6c.4-.2.9-.3 1.4-.4l.7-.2.7-.1c1.9-.4 3.9-.2 6 .1 3.5.5 7.3 1.6 11.6 1.7 1.1 0 2.1 0 3.2-.2.5-.1 1.1-.1 1.6-.2l1.6-.4c2.1-.6 4-1.7 5.5-3 .4-.3-.3-1.6-.8-1.5-3.7 1.1-7.1.8-10.5 0-3.4-.8-7-2.2-11.2-2.9-2.5-.4-5.3-.7-8.1-.2l-1 .2-1 .3c-.7.2-1.4.4-2 .6l-1.9.9c-.3.2-.6.3-.9.5-.4-2.8-.9-5.6-1.3-8.3l-.8-4.7c-.2-1.5-.4-3-.5-4.6-.3-3.1-.5-6.4-1.7-9.8l-.2-.6-.4-.8c-.3-.5-.5-.9-.8-1.2-.5-.7-1.1-1.4-1.6-2-1.1-1.2-2.2-2.4-3.2-3.5-1.1-1.1-2.1-2.3-3-3.4-.2-.3-.4-.6-.6-.8l-.1-.5-.1-.1c-.1-.1-.1-.3-.1-.4 0-.2.2-.3.3-.3.1 0 .1 0 .2-.1h.1c.1 0 .3-.1.5-.1 1.3-.3 2.9-.5 4.4-.6 3-.3 6.1-.4 9.2-.4 6.2-.1 12.5.1 18.8.3 6.3.2 12.6.5 18.9.8l14.9.6z"></path></g><!----></svg>